<svg width="160" height="25" viewBox="0 0 160 25" fill="none" xmlns="http://www.w3.org/2000/svg">
<path d="M11.4 2.84999L6.24998 7.99999C6.04998 8.19999 6.04998 8.50999 6.24998 8.70999L7.97999 10.44C8.17999 10.64 8.48998 10.64 8.68998 10.44L13.84 5.28999C14.04 5.08999 14.04 4.77999 13.84 4.57999L12.11 2.84999C11.91 2.65999 11.6 2.65999 11.4 2.84999Z" fill="#2B59FF"/>
<path d="M15.3 6.75999L6.24998 15.81C6.04998 16.01 6.04998 16.32 6.24998 16.52L7.97999 18.25C8.17999 18.45 8.48998 18.45 8.68998 18.25L17.74 9.19999C17.94 8.99998 17.94 8.68998 17.74 8.48998L16.01 6.75999C15.82 6.55999 15.5 6.55999 15.3 6.75999Z" fill="#2B59FF"/>
<path d="M19.21 10.66L10.16 19.71C9.96001 19.91 9.96001 20.22 10.16 20.42L11.89 22.15C12.09 22.35 12.4 22.35 12.6 22.15L21.65 13.1C21.85 12.9 21.85 12.59 21.65 12.39L19.92 10.66C19.72 10.46 19.4 10.46 19.21 10.66Z" fill="#2B59FF"/>
<path d="M4.08997 14.34L2.35996 12.61C2.15996 12.41 2.15996 12.1 2.35996 11.9L4.08997 10.17C4.28997 9.96999 4.59996 9.96999 4.79996 10.17L6.52997 11.9C6.72997 12.1 6.72997 12.41 6.52997 12.61L4.79996 14.34C4.59996 14.54 4.27997 14.54 4.08997 14.34Z" fill="#2B59FF"/>
<path d="M41.108 10.2898H38.983C38.9223 9.94129 38.8106 9.63258 38.6477 9.36364C38.4848 9.09091 38.2822 8.85985 38.0398 8.67045C37.7973 8.48106 37.5208 8.33901 37.2102 8.24432C36.9034 8.14583 36.572 8.09659 36.2159 8.09659C35.5833 8.09659 35.0227 8.25568 34.5341 8.57386C34.0455 8.88826 33.6629 9.35038 33.3864 9.96023C33.1098 10.5663 32.9716 11.3068 32.9716 12.1818C32.9716 13.072 33.1098 13.822 33.3864 14.4318C33.6667 15.0379 34.0492 15.4962 34.5341 15.8068C35.0227 16.1136 35.5814 16.267 36.2102 16.267C36.5587 16.267 36.8845 16.2216 37.1875 16.1307C37.4943 16.036 37.7689 15.8977 38.0114 15.7159C38.2576 15.5341 38.464 15.3106 38.6307 15.0455C38.8011 14.7803 38.9186 14.4773 38.983 14.1364L41.108 14.1477C41.0284 14.7008 40.8561 15.2197 40.5909 15.7045C40.3295 16.1894 39.9867 16.6174 39.5625 16.9886C39.1383 17.3561 38.642 17.6439 38.0739 17.8523C37.5057 18.0568 36.875 18.1591 36.1818 18.1591C35.1591 18.1591 34.2462 17.9223 33.4432 17.4489C32.6402 16.9754 32.0076 16.2917 31.5455 15.3977C31.0833 14.5038 30.8523 13.4318 30.8523 12.1818C30.8523 10.928 31.0852 9.85606 31.5511 8.96591C32.017 8.07197 32.6515 7.38826 33.4545 6.91477C34.2576 6.44129 35.1667 6.20455 36.1818 6.20455C36.8295 6.20455 37.4318 6.29545 37.9886 6.47727C38.5455 6.65909 39.0417 6.92614 39.4773 7.27841C39.9129 7.62689 40.2708 8.05492 40.5511 8.5625C40.8352 9.06629 41.0208 9.64205 41.108 10.2898ZM45.0043 12.8864V18H42.9474V6.36364H44.9588V10.7557H45.0611C45.2656 10.2633 45.5819 9.875 46.0099 9.59091C46.4418 9.30303 46.991 9.15909 47.6577 9.15909C48.2637 9.15909 48.7921 9.28598 49.2429 9.53977C49.6937 9.79356 50.0421 10.1648 50.2884 10.6534C50.5384 11.142 50.6634 11.7386 50.6634 12.4432V18H48.6065V12.7614C48.6065 12.1742 48.455 11.7178 48.152 11.392C47.8527 11.0625 47.4323 10.8977 46.8906 10.8977C46.527 10.8977 46.2012 10.9773 45.9134 11.1364C45.6293 11.2917 45.4058 11.517 45.2429 11.8125C45.0838 12.108 45.0043 12.4659 45.0043 12.8864ZM55.2713 18.1761C54.7183 18.1761 54.2202 18.0777 53.777 17.8807C53.3376 17.6799 52.9891 17.3845 52.7315 16.9943C52.4777 16.6042 52.3509 16.1231 52.3509 15.5511C52.3509 15.0587 52.4418 14.6515 52.6236 14.3295C52.8054 14.0076 53.0535 13.75 53.3679 13.5568C53.6823 13.3636 54.0365 13.2178 54.4304 13.1193C54.8281 13.017 55.2391 12.9432 55.6634 12.8977C56.1747 12.8447 56.5895 12.7973 56.9077 12.7557C57.2259 12.7102 57.4569 12.642 57.6009 12.5511C57.7486 12.4564 57.8224 12.3106 57.8224 12.1136V12.0795C57.8224 11.6515 57.6955 11.3201 57.4418 11.0852C57.188 10.8504 56.8224 10.733 56.3452 10.733C55.8414 10.733 55.4418 10.8428 55.1463 11.0625C54.8546 11.2822 54.6577 11.5417 54.5554 11.8409L52.6349 11.5682C52.7865 11.0379 53.0365 10.5947 53.3849 10.2386C53.7334 9.87879 54.1596 9.60985 54.6634 9.43182C55.1671 9.25 55.724 9.15909 56.3338 9.15909C56.7543 9.15909 57.1728 9.20833 57.5895 9.30682C58.0062 9.4053 58.3868 9.56818 58.7315 9.79545C59.0762 10.0189 59.3527 10.3239 59.5611 10.7102C59.7732 11.0966 59.8793 11.5795 59.8793 12.1591V18H57.902V16.8011H57.8338C57.7088 17.0436 57.5327 17.2708 57.3054 17.483C57.0819 17.6913 56.7997 17.8598 56.4588 17.9886C56.1217 18.1136 55.7259 18.1761 55.2713 18.1761ZM55.8054 16.6648C56.2183 16.6648 56.5762 16.5833 56.8793 16.4205C57.1823 16.2538 57.4152 16.0341 57.5781 15.7614C57.7448 15.4886 57.8281 15.1913 57.8281 14.8693V13.8409C57.7637 13.8939 57.6539 13.9432 57.4986 13.9886C57.3471 14.0341 57.1766 14.0739 56.9872 14.108C56.7978 14.142 56.6103 14.1723 56.4247 14.1989C56.2391 14.2254 56.0781 14.2481 55.9418 14.267C55.6349 14.3087 55.3603 14.3769 55.1179 14.4716C54.8755 14.5663 54.6842 14.6989 54.544 14.8693C54.4039 15.036 54.3338 15.2519 54.3338 15.517C54.3338 15.8958 54.4721 16.1818 54.7486 16.375C55.0251 16.5682 55.3774 16.6648 55.8054 16.6648ZM66.3054 9.27273V10.8636H61.2884V9.27273H66.3054ZM62.527 7.18182H64.5838V15.375C64.5838 15.6515 64.6255 15.8636 64.7088 16.0114C64.7959 16.1553 64.9096 16.2538 65.0497 16.3068C65.1899 16.3598 65.3452 16.3864 65.5156 16.3864C65.6444 16.3864 65.7618 16.3769 65.8679 16.358C65.9777 16.339 66.0611 16.322 66.1179 16.3068L66.4645 17.9148C66.3546 17.9527 66.1974 17.9943 65.9929 18.0398C65.7921 18.0852 65.5459 18.1117 65.2543 18.1193C64.7391 18.1345 64.2751 18.0568 63.8622 17.8864C63.4493 17.7121 63.1217 17.4432 62.8793 17.0795C62.6406 16.7159 62.5232 16.2614 62.527 15.7159V7.18182ZM73.5795 18H71.3295L75.4261 6.36364H78.0284L82.1307 18H79.8807L76.7727 8.75H76.6818L73.5795 18ZM73.6534 13.4375H79.7898V15.1307H73.6534V13.4375ZM83.5724 21.2727V9.27273H85.5952V10.7159H85.7145C85.8205 10.5038 85.9702 10.2784 86.1634 10.0398C86.3565 9.79735 86.6179 9.59091 86.9474 9.42045C87.277 9.24621 87.6974 9.15909 88.2088 9.15909C88.883 9.15909 89.491 9.33144 90.0327 9.67614C90.5781 10.017 91.0099 10.5227 91.3281 11.1932C91.6501 11.8598 91.8111 12.678 91.8111 13.6477C91.8111 14.6061 91.6539 15.4205 91.3395 16.0909C91.0251 16.7614 90.5971 17.2727 90.0554 17.625C89.5137 17.9773 88.9001 18.1534 88.2145 18.1534C87.7145 18.1534 87.2997 18.0701 86.9702 17.9034C86.6406 17.7367 86.3755 17.536 86.1747 17.3011C85.9777 17.0625 85.8243 16.8371 85.7145 16.625H85.6293V21.2727H83.5724ZM85.5895 13.6364C85.5895 14.2008 85.669 14.6951 85.8281 15.1193C85.991 15.5436 86.224 15.875 86.527 16.1136C86.8338 16.3485 87.205 16.4659 87.6406 16.4659C88.0952 16.4659 88.4759 16.3447 88.7827 16.1023C89.0895 15.8561 89.3205 15.5208 89.4759 15.0966C89.6349 14.6686 89.7145 14.1818 89.7145 13.6364C89.7145 13.0947 89.6368 12.6136 89.4815 12.1932C89.3262 11.7727 89.0952 11.4432 88.7884 11.2045C88.4815 10.9659 88.099 10.8466 87.6406 10.8466C87.2012 10.8466 86.8281 10.9621 86.5213 11.1932C86.2145 11.4242 85.9815 11.7481 85.8224 12.1648C85.6671 12.5814 85.5895 13.072 85.5895 13.6364ZM93.5724 21.2727V9.27273H95.5952V10.7159H95.7145C95.8205 10.5038 95.9702 10.2784 96.1634 10.0398C96.3565 9.79735 96.6179 9.59091 96.9474 9.42045C97.277 9.24621 97.6974 9.15909 98.2088 9.15909C98.883 9.15909 99.491 9.33144 100.033 9.67614C100.578 10.017 101.01 10.5227 101.328 11.1932C101.65 11.8598 101.811 12.678 101.811 13.6477C101.811 14.6061 101.654 15.4205 101.339 16.0909C101.025 16.7614 100.597 17.2727 100.055 17.625C99.5137 17.9773 98.9001 18.1534 98.2145 18.1534C97.7145 18.1534 97.2997 18.0701 96.9702 17.9034C96.6406 17.7367 96.3755 17.536 96.1747 17.3011C95.9777 17.0625 95.8243 16.8371 95.7145 16.625H95.6293V21.2727H93.5724ZM95.5895 13.6364C95.5895 14.2008 95.669 14.6951 95.8281 15.1193C95.991 15.5436 96.224 15.875 96.527 16.1136C96.8338 16.3485 97.205 16.4659 97.6406 16.4659C98.0952 16.4659 98.4759 16.3447 98.7827 16.1023C99.0895 15.8561 99.3205 15.5208 99.4759 15.0966C99.6349 14.6686 99.7145 14.1818 99.7145 13.6364C99.7145 13.0947 99.6368 12.6136 99.4815 12.1932C99.3262 11.7727 99.0952 11.4432 98.7884 11.2045C98.4815 10.9659 98.099 10.8466 97.6406 10.8466C97.2012 10.8466 96.8281 10.9621 96.5213 11.1932C96.2145 11.4242 95.9815 11.7481 95.8224 12.1648C95.6671 12.5814 95.5895 13.072 95.5895 13.6364ZM105.629 6.36364V18H103.572V6.36364H105.629ZM107.744 18V9.27273H109.801V18H107.744ZM108.778 8.03409C108.453 8.03409 108.172 7.92614 107.938 7.71023C107.703 7.49053 107.585 7.22727 107.585 6.92045C107.585 6.60985 107.703 6.34659 107.938 6.13068C108.172 5.91098 108.453 5.80114 108.778 5.80114C109.108 5.80114 109.388 5.91098 109.619 6.13068C109.854 6.34659 109.972 6.60985 109.972 6.92045C109.972 7.22727 109.854 7.49053 109.619 7.71023C109.388 7.92614 109.108 8.03409 108.778 8.03409ZM115.723 18.1705C114.852 18.1705 114.104 17.9792 113.479 17.5966C112.857 17.214 112.378 16.6856 112.041 16.0114C111.708 15.3333 111.541 14.553 111.541 13.6705C111.541 12.7841 111.712 12.0019 112.053 11.3239C112.393 10.642 112.875 10.1117 113.496 9.73295C114.121 9.35038 114.859 9.15909 115.712 9.15909C116.42 9.15909 117.047 9.28977 117.592 9.55114C118.142 9.80871 118.579 10.1742 118.905 10.6477C119.231 11.1174 119.416 11.6667 119.462 12.2955H117.496C117.416 11.875 117.227 11.5246 116.928 11.2443C116.632 10.9602 116.236 10.8182 115.74 10.8182C115.32 10.8182 114.95 10.9318 114.632 11.1591C114.314 11.3826 114.066 11.7045 113.888 12.125C113.714 12.5455 113.626 13.0492 113.626 13.6364C113.626 14.2311 113.714 14.7424 113.888 15.1705C114.062 15.5947 114.306 15.9223 114.621 16.1534C114.939 16.3807 115.312 16.4943 115.74 16.4943C116.043 16.4943 116.314 16.4375 116.553 16.3239C116.795 16.2064 116.998 16.0379 117.161 15.8182C117.323 15.5985 117.435 15.3314 117.496 15.017H119.462C119.412 15.6345 119.231 16.1818 118.916 16.6591C118.602 17.1326 118.174 17.5038 117.632 17.7727C117.09 18.0379 116.454 18.1705 115.723 18.1705ZM123.662 18.1761C123.109 18.1761 122.611 18.0777 122.168 17.8807C121.728 17.6799 121.38 17.3845 121.122 16.9943C120.868 16.6042 120.741 16.1231 120.741 15.5511C120.741 15.0587 120.832 14.6515 121.014 14.3295C121.196 14.0076 121.444 13.75 121.759 13.5568C122.073 13.3636 122.427 13.2178 122.821 13.1193C123.219 13.017 123.63 12.9432 124.054 12.8977C124.565 12.8447 124.98 12.7973 125.298 12.7557C125.616 12.7102 125.848 12.642 125.991 12.5511C126.139 12.4564 126.213 12.3106 126.213 12.1136V12.0795C126.213 11.6515 126.086 11.3201 125.832 11.0852C125.579 10.8504 125.213 10.733 124.736 10.733C124.232 10.733 123.832 10.8428 123.537 11.0625C123.245 11.2822 123.048 11.5417 122.946 11.8409L121.026 11.5682C121.177 11.0379 121.427 10.5947 121.776 10.2386C122.124 9.87879 122.55 9.60985 123.054 9.43182C123.558 9.25 124.115 9.15909 124.724 9.15909C125.145 9.15909 125.563 9.20833 125.98 9.30682C126.397 9.4053 126.777 9.56818 127.122 9.79545C127.467 10.0189 127.743 10.3239 127.952 10.7102C128.164 11.0966 128.27 11.5795 128.27 12.1591V18H126.293V16.8011H126.224C126.099 17.0436 125.923 17.2708 125.696 17.483C125.473 17.6913 125.19 17.8598 124.849 17.9886C124.512 18.1136 124.116 18.1761 123.662 18.1761ZM124.196 16.6648C124.609 16.6648 124.967 16.5833 125.27 16.4205C125.573 16.2538 125.806 16.0341 125.969 15.7614C126.135 15.4886 126.219 15.1913 126.219 14.8693V13.8409C126.154 13.8939 126.045 13.9432 125.889 13.9886C125.738 14.0341 125.567 14.0739 125.378 14.108C125.188 14.142 125.001 14.1723 124.815 14.1989C124.63 14.2254 124.469 14.2481 124.332 14.267C124.026 14.3087 123.751 14.3769 123.509 14.4716C123.266 14.5663 123.075 14.6989 122.935 14.8693C122.795 15.036 122.724 15.2519 122.724 15.517C122.724 15.8958 122.863 16.1818 123.139 16.375C123.416 16.5682 123.768 16.6648 124.196 16.6648ZM134.696 9.27273V10.8636H129.679V9.27273H134.696ZM130.918 7.18182H132.974V15.375C132.974 15.6515 133.016 15.8636 133.099 16.0114C133.187 16.1553 133.3 16.2538 133.44 16.3068C133.58 16.3598 133.736 16.3864 133.906 16.3864C134.035 16.3864 134.152 16.3769 134.259 16.358C134.368 16.339 134.452 16.322 134.509 16.3068L134.855 17.9148C134.745 17.9527 134.588 17.9943 134.384 18.0398C134.183 18.0852 133.937 18.1117 133.645 18.1193C133.13 18.1345 132.666 18.0568 132.253 17.8864C131.84 17.7121 131.512 17.4432 131.27 17.0795C131.031 16.7159 130.914 16.2614 130.918 15.7159V7.18182ZM136.416 18V9.27273H138.473V18H136.416ZM137.45 8.03409C137.125 8.03409 136.844 7.92614 136.609 7.71023C136.375 7.49053 136.257 7.22727 136.257 6.92045C136.257 6.60985 136.375 6.34659 136.609 6.13068C136.844 5.91098 137.125 5.80114 137.45 5.80114C137.78 5.80114 138.06 5.91098 138.291 6.13068C138.526 6.34659 138.643 6.60985 138.643 6.92045C138.643 7.22727 138.526 7.49053 138.291 7.71023C138.06 7.92614 137.78 8.03409 137.45 8.03409ZM144.395 18.1705C143.543 18.1705 142.804 17.983 142.179 17.608C141.554 17.233 141.069 16.7083 140.724 16.0341C140.384 15.3598 140.213 14.572 140.213 13.6705C140.213 12.7689 140.384 11.9792 140.724 11.3011C141.069 10.6231 141.554 10.0966 142.179 9.72159C142.804 9.34659 143.543 9.15909 144.395 9.15909C145.247 9.15909 145.986 9.34659 146.611 9.72159C147.236 10.0966 147.719 10.6231 148.06 11.3011C148.404 11.9792 148.577 12.7689 148.577 13.6705C148.577 14.572 148.404 15.3598 148.06 16.0341C147.719 16.7083 147.236 17.233 146.611 17.608C145.986 17.983 145.247 18.1705 144.395 18.1705ZM144.406 16.5227C144.868 16.5227 145.255 16.3958 145.565 16.142C145.876 15.8845 146.107 15.5398 146.259 15.108C146.414 14.6761 146.491 14.1951 146.491 13.6648C146.491 13.1307 146.414 12.6477 146.259 12.2159C146.107 11.7803 145.876 11.4337 145.565 11.1761C145.255 10.9186 144.868 10.7898 144.406 10.7898C143.933 10.7898 143.539 10.9186 143.224 11.1761C142.914 11.4337 142.681 11.7803 142.526 12.2159C142.374 12.6477 142.298 13.1307 142.298 13.6648C142.298 14.1951 142.374 14.6761 142.526 15.108C142.681 15.5398 142.914 15.8845 143.224 16.142C143.539 16.3958 143.933 16.5227 144.406 16.5227ZM152.379 12.8864V18H150.322V9.27273H152.288V10.7557H152.391C152.591 10.267 152.911 9.87879 153.351 9.59091C153.794 9.30303 154.341 9.15909 154.993 9.15909C155.595 9.15909 156.12 9.28788 156.567 9.54545C157.018 9.80303 157.366 10.1761 157.612 10.6648C157.862 11.1534 157.985 11.7462 157.982 12.4432V18H155.925V12.7614C155.925 12.178 155.773 11.7216 155.47 11.392C155.171 11.0625 154.756 10.8977 154.226 10.8977C153.866 10.8977 153.546 10.9773 153.266 11.1364C152.989 11.2917 152.771 11.517 152.612 11.8125C152.457 12.108 152.379 12.4659 152.379 12.8864Z" fill="black"/>
</svg>
