<svg width="24" height="25" viewBox="0 0 24 25" fill="none" xmlns="http://www.w3.org/2000/svg">
<path d="M11.4 2.84999L6.24998 7.99999C6.04998 8.19999 6.04998 8.50999 6.24998 8.70999L7.97999 10.44C8.17999 10.64 8.48998 10.64 8.68998 10.44L13.84 5.28999C14.04 5.08999 14.04 4.77999 13.84 4.57999L12.11 2.84999C11.91 2.65999 11.6 2.65999 11.4 2.84999Z" fill="#2B59FF"/>
<path d="M15.3 6.75999L6.24998 15.81C6.04998 16.01 6.04998 16.32 6.24998 16.52L7.97999 18.25C8.17999 18.45 8.48998 18.45 8.68998 18.25L17.74 9.19999C17.94 8.99998 17.94 8.68998 17.74 8.48998L16.01 6.75999C15.82 6.55999 15.5 6.55999 15.3 6.75999Z" fill="#2B59FF"/>
<path d="M19.21 10.66L10.16 19.71C9.96001 19.91 9.96001 20.22 10.16 20.42L11.89 22.15C12.09 22.35 12.4 22.35 12.6 22.15L21.65 13.1C21.85 12.9 21.85 12.59 21.65 12.39L19.92 10.66C19.72 10.46 19.4 10.46 19.21 10.66Z" fill="#2B59FF"/>
<path d="M4.08997 14.34L2.35996 12.61C2.15996 12.41 2.15996 12.1 2.35996 11.9L4.08997 10.17C4.28997 9.96999 4.59996 9.96999 4.79996 10.17L6.52997 11.9C6.72997 12.1 6.72997 12.41 6.52997 12.61L4.79996 14.34C4.59996 14.54 4.27997 14.54 4.08997 14.34Z" fill="#2B59FF"/>
</svg>
