<svg width="25" height="25" viewBox="0 0 25 25" fill="none" xmlns="http://www.w3.org/2000/svg">
<path d="M12.6862 5.62746C7.90619 5.62746 4.01619 9.51746 4.01619 14.2975C4.01619 19.0775 7.90619 22.9775 12.6862 22.9775C17.4662 22.9775 21.3562 19.0875 21.3562 14.3075C21.3562 9.52746 17.4662 5.62746 12.6862 5.62746ZM13.4362 13.9775C13.4362 14.3875 13.0962 14.7275 12.6862 14.7275C12.2762 14.7275 11.9362 14.3875 11.9362 13.9775V8.97746C11.9362 8.56746 12.2762 8.22746 12.6862 8.22746C13.0962 8.22746 13.4362 8.56746 13.4362 8.97746V13.9775Z" fill="#EACC2D"/>
<path d="M15.5762 4.42746H9.7962C9.3962 4.42746 9.0762 4.10746 9.0762 3.70746C9.0762 3.30746 9.3962 2.97746 9.7962 2.97746H15.5762C15.9762 2.97746 16.2962 3.29746 16.2962 3.69746C16.2962 4.09746 15.9762 4.42746 15.5762 4.42746Z" fill="#EACC2D"/>
</svg>
