<svg width="25" height="25" viewBox="0 0 25 25" fill="none" xmlns="http://www.w3.org/2000/svg">
<path d="M19.7762 13.5675C19.6162 13.5675 19.4562 13.5175 19.3162 13.4075C15.2862 10.2975 10.0762 10.2975 6.04618 13.4075C5.71618 13.6575 5.24618 13.5975 4.99618 13.2775C4.74618 12.9475 4.80618 12.4775 5.12618 12.2275C9.71618 8.67746 15.6462 8.67746 20.2262 12.2275C20.5562 12.4775 20.6162 12.9475 20.3562 13.2775C20.2262 13.4675 20.0062 13.5675 19.7762 13.5675Z" fill="#2B59FF"/>
<path d="M22.6862 10.0875C22.5262 10.0875 22.3662 10.0375 22.2262 9.92746C16.4262 5.44746 8.93619 5.44746 3.1462 9.92746C2.8162 10.1775 2.3462 10.1175 2.0962 9.79746C1.8362 9.47746 1.89619 8.99746 2.2262 8.74746C8.57619 3.83746 16.7862 3.83746 23.1462 8.74746C23.4762 8.99746 23.5362 9.46746 23.2762 9.79746C23.1362 9.98746 22.9062 10.0875 22.6862 10.0875Z" fill="#2B59FF"/>
<path d="M17.8962 17.2175C17.7362 17.2175 17.5762 17.1675 17.4362 17.0575C14.5562 14.8275 10.8262 14.8275 7.93618 17.0575C7.60618 17.3075 7.13618 17.2475 6.88618 16.9275C6.63618 16.5975 6.69618 16.1275 7.01618 15.8775C10.4562 13.2175 14.9062 13.2175 18.3462 15.8775C18.6762 16.1275 18.7362 16.5975 18.4762 16.9275C18.3362 17.1175 18.1162 17.2175 17.8962 17.2175Z" fill="#2B59FF"/>
<path d="M15.2862 20.8775C15.1262 20.8775 14.9662 20.8275 14.8262 20.7175C13.5262 19.7075 11.8362 19.7075 10.5362 20.7175C10.2062 20.9675 9.73619 20.9075 9.48619 20.5875C9.23619 20.2575 9.29619 19.7875 9.61619 19.5375C11.4762 18.0975 13.8762 18.0975 15.7362 19.5375C16.0662 19.7875 16.1262 20.2575 15.8662 20.5875C15.7362 20.7675 15.5162 20.8775 15.2862 20.8775Z" fill="#2B59FF"/>
</svg>
